<svg width="200" height="200" viewBox="0 0 200 200" fill="none" xmlns="http://www.w3.org/2000/svg">
<path d="M100 183.334C87.4005 183.369 74.9602 180.518 63.6333 175C59.4879 172.984 55.5161 170.628 51.7583 167.958L50.6167 167.125C40.2818 159.497 31.8323 149.602 25.9167 138.2C19.7978 126.399 16.6242 113.293 16.6662 100C16.6662 53.9763 53.9763 16.6667 100 16.6667C146.024 16.6667 183.334 53.9763 183.334 100C183.375 113.287 180.205 126.386 174.092 138.183C168.184 149.579 159.747 159.47 149.425 167.1C145.531 169.95 141.399 172.459 137.075 174.6L136.408 174.933C125.074 180.481 112.619 183.355 100 183.334ZM100 141.666C87.5123 141.642 76.0639 148.617 70.3583 159.725C89.0366 168.977 110.963 168.977 129.642 159.725V159.683C123.929 148.587 112.48 141.628 100 141.666ZM100 125C118.051 125.024 134.695 134.751 143.575 150.467L143.7 150.358L143.817 150.258L143.675 150.383L143.592 150.45C164.667 132.243 172.202 102.853 162.489 76.7509C152.775 50.649 127.859 33.3359 100.008 33.3359C72.1576 33.3359 47.2416 50.649 37.5279 76.7509C27.8142 102.853 35.35 132.243 56.425 150.45C65.3105 134.742 81.953 125.022 100 125ZM100 116.667C81.5905 116.667 66.6667 101.743 66.6667 83.3333C66.6667 64.9238 81.5905 50 100 50C118.41 50 133.333 64.9238 133.333 83.3333C133.333 92.1739 129.821 100.652 123.57 106.904C117.319 113.155 108.841 116.667 100 116.667ZM100 66.6667C90.7953 66.6667 83.3333 74.1286 83.3333 83.3333C83.3333 92.5381 90.7953 100 100 100C109.205 100 116.667 92.5381 116.667 83.3333C116.667 74.1286 109.205 66.6667 100 66.6667Z" fill="#32FF7E"/>
</svg>
